<svg xmlns="http://www.w3.org/2000/svg" id="Layer_1" viewBox="0 0 50 50"><defs><style>.cls-1{fill:#0f4c81;}</style></defs><path class="cls-1" d="M14.94,19.74c.41,0,.74-.33,.74-.74V10.89h20.67v11.81c0,.41,.33,.74,.74,.74s.74-.33,.74-.74V4.24c0-.41-.33-.74-.74-.74H14.94c-.41,0-.74,.33-.74,.74v14.76c0,.41,.33,.74,.74,.74ZM36.35,4.98v4.43H15.68V4.98h20.67Z"></path><path class="cls-1" d="M19.37,6.83c0,.41-.33,.74-.74,.74s-.74-.33-.74-.74,.33-.74,.74-.74,.74,.33,.74,.74"></path><path class="cls-1" d="M22.69,6.83c0,.41-.33,.74-.74,.74s-.74-.33-.74-.74,.33-.74,.74-.74,.74,.33,.74,.74"></path><path class="cls-1" d="M26.75,6.83c0,.41-.33,.74-.74,.74s-.74-.33-.74-.74,.33-.74,.74-.74,.74,.33,.74,.74"></path><path class="cls-1" d="M14.2,41.89h-2.18c.39-6.57,5.84-11.81,12.51-11.81,.41,0,.74-.33,.74-.74s-.33-.74-.74-.74c-3.36,0-6.44,1.19-8.86,3.16v-8.99c2.93-.02,5.68-1.17,7.75-3.24,.29-.29,.29-.76,0-1.04-.29-.29-.76-.29-1.04,0-3.26,3.26-8.29,3.68-12.01,1.26h.87c.41,0,.74-.33,.74-.74v-4.43c0-.41-.33-.74-.74-.74H5.35c-.41,0-.74,.33-.74,.74v4.43c0,.41,.33,.74,.74,.74h2.67c1.72,1.63,3.87,2.64,6.19,2.93,0,0,0,.01,0,.02v10.33s.02,.08,.02,.12c-2.14,2.33-3.5,5.37-3.68,8.74h-2.25c-.41,0-.74,.33-.74,.74v4.43c0,.41,.33,.74,.74,.74h5.9c.41,0,.74-.33,.74-.74v-4.43c0-.41-.33-.74-.74-.74h0ZM6.08,15.32h4.43v2.95H6.08v-2.95Zm7.38,31h-4.43v-2.95h4.43v2.95Z"></path><path class="cls-1" d="M48.16,24.17h-5.9c-.41,0-.74,.33-.74,.74v1.45c-4.95-.26-8.86-3.13-8.86-6.62,0-.41-.33-.74-.74-.74s-.74,.33-.74,.74c0,2.88,2.07,5.42,5.17,6.86v9.38H14.94c-.41,0-.74,.33-.74,.74s.33,.74,.74,.74h22.14c.41,0,.74-.33,.74-.74v-9.54c1.14,.37,2.39,.59,3.69,.66v1.5c0,.41,.33,.74,.74,.74h5.9c.41,0,.74-.33,.74-.74v-4.43c0-.41-.33-.74-.74-.74h0Zm-.74,4.43h-4.43v-2.95h4.43v2.95Z"></path></svg>