<svg xmlns="http://www.w3.org/2000/svg" id="Layer_1" viewBox="0 0 50 50"><defs><style>.cls-1{fill:#0f4c81;}</style></defs><path class="cls-1" d="M44.77,19.22c0-.54-.22-1.07-.6-1.45s-.91-.6-1.45-.6h-.68v-2.42c.87-.78,1.37-1.89,1.37-3.05v-.16l-3.68-7.37H11.49l-3.68,7.37v.16c0,1.17,.5,2.28,1.37,3.05v2.42h-.68c-.54,0-1.07,.22-1.45,.6s-.6,.91-.6,1.45v21.91h-1.37v2.05c0,.54,.22,1.07,.6,1.45s.91,.6,1.45,.6H44.09c.54,0,1.07-.22,1.45-.6s.6-.91,.6-1.45v-2.05h-1.37V19.22Zm-10.03-13.69h4.13l3.16,6.31c-.05,.96-.6,1.82-1.45,2.27-.85,.45-1.87,.42-2.69-.08-.82-.5-1.33-1.39-1.32-2.35l-1.82-6.16Zm-1.43,0l1.88,6.26c-.03,.98-.58,1.87-1.44,2.33-.86,.46-1.91,.43-2.74-.08-.83-.51-1.33-1.43-1.3-2.41l-.62-6.09h4.21Zm-9.82,0h4.24l.62,6.19c0,.98-.51,1.89-1.35,2.38-.84,.49-1.89,.5-2.74,.02-.85-.48-1.38-1.38-1.38-2.36l.62-6.23Zm-1.37,0l-.62,6.16c.02,.98-.49,1.89-1.33,2.4-.84,.5-1.88,.52-2.74,.05s-1.39-1.37-1.41-2.35l1.88-6.26h4.21Zm-9.78,0h4.13l-1.79,5.96-.03,.2c0,.96-.5,1.85-1.32,2.35-.82,.5-1.85,.52-2.69,.08-.85-.45-1.4-1.31-1.45-2.27l3.16-6.31Zm-.42,10.27c1.38,0,2.66-.69,3.42-1.84,.76,1.15,2.05,1.84,3.42,1.84,1.38,0,2.67-.69,3.43-1.83,.76,1.15,2.05,1.83,3.42,1.83,1.38,0,2.66-.69,3.42-1.84,.76,1.15,2.05,1.84,3.42,1.84s2.66-.69,3.42-1.84c.5,.77,1.25,1.34,2.12,1.63,.87,.29,1.81,.28,2.67-.03v22.83H10.54V15.56c.44,.16,.9,.24,1.37,.24h0Zm-4.11,3.42c0-.38,.31-.68,.68-.68h.68v21.22H42.03V18.53h.68c.18,0,.36,.07,.48,.2s.2,.3,.2,.48v21.91H7.8V19.22Zm36.97,23.96c0,.18-.07,.36-.2,.48s-.3,.2-.48,.2H7.12c-.38,0-.68-.31-.68-.68v-.68H44.77v.68Z"></path><path class="cls-1" d="M19.35,32.33h15.72l1.44-10.82H18.49l-.64-3.18h-3.07v1.27h2.02l2.55,12.73Zm15.71-9.55l-1.1,8.27h-13.56l-1.65-8.27h16.32Z"></path><path class="cls-1" d="M20.51,34.24c0,.51,.2,.99,.56,1.35s.84,.56,1.35,.56,.99-.2,1.35-.56,.56-.84,.56-1.35-.2-.99-.56-1.35-.84-.56-1.35-.56-.99,.2-1.35,.56-.56,.84-.56,1.35Zm1.91-.64c.26,0,.49,.16,.59,.39,.1,.24,.04,.51-.14,.69s-.46,.24-.69,.14c-.24-.1-.39-.33-.39-.59,0-.35,.28-.64,.64-.64Z"></path><path class="cls-1" d="M30.06,34.24c0,.51,.2,.99,.56,1.35s.84,.56,1.35,.56,.99-.2,1.35-.56,.56-.84,.56-1.35-.2-.99-.56-1.35-.84-.56-1.35-.56-.99,.2-1.35,.56-.56,.84-.56,1.35Zm1.91-.64c.26,0,.49,.16,.59,.39,.1,.24,.04,.51-.14,.69s-.46,.24-.69,.14c-.24-.1-.39-.33-.39-.59,0-.35,.28-.64,.64-.64Z"></path></svg>